<svg width="25" height="27" viewBox="0 0 25 27" fill="none" xmlns="http://www.w3.org/2000/svg">
<g filter="url(#filter0_d_6_1473)">
<path d="M12.9851 2.11937C12.9851 1.99798 12.9369 1.88156 12.851 1.79572C12.7652 1.70989 12.6488 1.66166 12.5274 1.66166C12.406 1.66166 12.2896 1.70989 12.2037 1.79572C12.1179 1.88156 12.0697 1.99798 12.0697 2.11937V3.51996C10.01 3.74881 8.408 5.4881 8.408 7.61187V13.022L6.95249 14.4775H18.1023L16.6468 13.022V7.61187C16.6468 5.4881 15.0448 3.74881 12.9851 3.51996V2.11937ZM12.5274 0.746246C12.8916 0.746246 13.2408 0.890914 13.4983 1.14843C13.7558 1.40594 13.9005 1.7552 13.9005 2.11937V2.76932C16.0151 3.36434 17.5622 5.32333 17.5622 7.61187V12.6467L20.3084 15.3929H4.74634L7.49259 12.6467V7.61187C7.49259 5.32333 9.03964 3.36434 11.1543 2.76932V2.11937C11.1543 1.7552 11.2989 1.40594 11.5564 1.14843C11.8139 0.890914 12.1632 0.746246 12.5274 0.746246ZM12.5274 18.1392C11.9998 18.1393 11.4884 17.9571 11.0797 17.6235C10.671 17.2898 10.3901 16.8252 10.2846 16.3083H11.2366C11.3308 16.5755 11.5055 16.8068 11.7367 16.9705C11.9679 17.1341 12.2441 17.222 12.5274 17.222C12.8106 17.222 13.0869 17.1341 13.3181 16.9705C13.5493 16.8068 13.724 16.5755 13.8181 16.3083H14.7702C14.6646 16.8252 14.3838 17.2898 13.9751 17.6235C13.5664 17.9571 13.055 18.1393 12.5274 18.1392Z" fill="#ffff
"/>
</g>
<defs>
<filter id="filter0_d_6_1473" x="0.746338" y="0.746246" width="23.562" height="25.3929" filterUnits="userSpaceOnUse" color-interpolation-filters="sRGB">
<feFlood flood-opacity="0" result="BackgroundImageFix"/>
<feColorMatrix in="SourceAlpha" type="matrix" values="0 0 0 0 0 0 0 0 0 0 0 0 0 0 0 0 0 0 127 0" result="hardAlpha"/>
<feOffset dy="4"/>
<feGaussianBlur stdDeviation="2"/>
<feComposite in2="hardAlpha" operator="out"/>
<feColorMatrix type="matrix" values="0 0 0 0 0 0 0 0 0 0 0 0 0 0 0 0 0 0 0.25 0"/>
<feBlend mode="normal" in2="BackgroundImageFix" result="effect1_dropShadow_6_1473"/>
<feBlend mode="normal" in="SourceGraphic" in2="effect1_dropShadow_6_1473" result="shape"/>
</filter>
</defs>
</svg>
